<svg viewBox="0 0 240 240" xmlns="http://www.w3.org/2000/svg" role="img" aria-label="Lateral Raise"><title>Lateral Raise</title>
<g fill="none" stroke-linecap="round" stroke-linejoin="round" stroke="currentColor" opacity="0.28">
<path stroke-width="2.5" d="M12,225 L228,225"/>
</g>
<g fill="none" stroke-linecap="round" stroke-linejoin="round" stroke="currentColor">
<path stroke-width="20" d="M111.5,126 L108.1,174.9"/>
<path stroke-width="14" d="M108.1,174.9 L108.1,221.9"/>
<path stroke-width="7.5" d="M108.1,221.9 L100.1,221.9"/>
<path stroke-width="20" d="M128.5,126 L131.9,174.9"/>
<path stroke-width="14" d="M131.9,174.9 L131.9,221.9"/>
<path stroke-width="7.5" d="M131.9,221.9 L139.9,221.9"/>
</g>
<g fill="none" stroke-linecap="round" stroke-linejoin="round" stroke="currentColor">
<path stroke-width="11" d="M120,66 L120,59"/>
</g>
<g fill="currentColor">
<path d="M104,130.8 C99.1,126 107,111 106.5,102 C106,93 101.9,83 101,76.8 C100.1,70.6 94.7,66.8 101,64.8 C107.3,62.8 132.7,62.8 139,64.8 C145.3,66.8 139.9,70.6 139,76.8 C138.1,83 134,93 133.5,102 C133,111 140.9,126 136,130.8 C131.1,135.6 108.9,135.6 104,130.8Z"/>
<circle r="12" cx="120" cy="46"/>
</g>
<g fill="none" stroke-linecap="round" stroke-linejoin="round" style="stroke:var(--surface-2,#eceef1)">
<path stroke-width="16.5" d="M137,66 L140.7,100.8"><animate attributeName="d" dur="2.6s" repeatCount="indefinite" values="M137,66 L140.7,100.8;M137,66 L140.8,100.8;M137,66 L144.3,100.2;M137,66 L151.4,97.9;M137,66 L159.9,92.4;M137,66 L167,84;M137,66 L170.9,74.7;M137,66 L172,67.3;M137,66 L171.9,63.7;M137,66 L171.9,63.6;M137,66 L171.9,63.7;M137,66 L172,67.3;M137,66 L170.9,74.7;M137,66 L167,84;M137,66 L159.9,92.4;M137,66 L151.4,97.9;M137,66 L144.3,100.2;M137,66 L140.8,100.8;M137,66 L140.7,100.8"/></path>
<path stroke-width="13.5" d="M140.7,100.8 L142.8,131.7"><animate attributeName="d" dur="2.6s" repeatCount="indefinite" values="M140.7,100.8 L142.8,131.7;M140.8,100.8 L143.2,131.7;M144.3,100.2 L149.5,130.8;M151.4,97.9 L162.6,126.8;M159.9,92.4 L178.4,117.4;M167,84 L191.9,102.4;M170.9,74.7 L199.8,85.8;M172,67.3 L202.5,72.5;M171.9,63.7 L202.8,66.1;M171.9,63.6 L202.8,65.7;M171.9,63.7 L202.8,66.1;M172,67.3 L202.5,72.5;M170.9,74.7 L199.8,85.8;M167,84 L191.9,102.4;M159.9,92.4 L178.4,117.4;M151.4,97.9 L162.6,126.8;M144.3,100.2 L149.5,130.8;M140.8,100.8 L143.2,131.7;M140.7,100.8 L142.8,131.7"/></path>
<path stroke-width="16.5" d="M103,66 L99.3,100.8"><animate attributeName="d" dur="2.6s" repeatCount="indefinite" values="M103,66 L99.3,100.8;M103,66 L99.2,100.8;M103,66 L95.7,100.2;M103,66 L88.6,97.9;M103,66 L80.1,92.4;M103,66 L73,84;M103,66 L69.1,74.7;M103,66 L68,67.3;M103,66 L68.1,63.7;M103,66 L68.1,63.6;M103,66 L68.1,63.7;M103,66 L68,67.3;M103,66 L69.1,74.7;M103,66 L73,84;M103,66 L80.1,92.4;M103,66 L88.6,97.9;M103,66 L95.7,100.2;M103,66 L99.2,100.8;M103,66 L99.3,100.8"/></path>
<path stroke-width="13.5" d="M99.3,100.8 L97.2,131.7"><animate attributeName="d" dur="2.6s" repeatCount="indefinite" values="M99.3,100.8 L97.2,131.7;M99.2,100.8 L96.8,131.7;M95.7,100.2 L90.5,130.8;M88.6,97.9 L77.4,126.8;M80.1,92.4 L61.6,117.4;M73,84 L48.1,102.4;M69.1,74.7 L40.2,85.8;M68,67.3 L37.5,72.5;M68.1,63.7 L37.2,66.1;M68.1,63.6 L37.2,65.7;M68.1,63.7 L37.2,66.1;M68,67.3 L37.5,72.5;M69.1,74.7 L40.2,85.8;M73,84 L48.1,102.4;M80.1,92.4 L61.6,117.4;M88.6,97.9 L77.4,126.8;M95.7,100.2 L90.5,130.8;M99.2,100.8 L96.8,131.7;M99.3,100.8 L97.2,131.7"/></path>
</g>
<g fill="none" stroke-linecap="round" stroke-linejoin="round" stroke="currentColor">
<path stroke-width="13" d="M137,66 L140.7,100.8"><animate attributeName="d" dur="2.6s" repeatCount="indefinite" values="M137,66 L140.7,100.8;M137,66 L140.8,100.8;M137,66 L144.3,100.2;M137,66 L151.4,97.9;M137,66 L159.9,92.4;M137,66 L167,84;M137,66 L170.9,74.7;M137,66 L172,67.3;M137,66 L171.9,63.7;M137,66 L171.9,63.6;M137,66 L171.9,63.7;M137,66 L172,67.3;M137,66 L170.9,74.7;M137,66 L167,84;M137,66 L159.9,92.4;M137,66 L151.4,97.9;M137,66 L144.3,100.2;M137,66 L140.8,100.8;M137,66 L140.7,100.8"/></path>
<path stroke-width="10" d="M140.7,100.8 L142.8,131.7"><animate attributeName="d" dur="2.6s" repeatCount="indefinite" values="M140.7,100.8 L142.8,131.7;M140.8,100.8 L143.2,131.7;M144.3,100.2 L149.5,130.8;M151.4,97.9 L162.6,126.8;M159.9,92.4 L178.4,117.4;M167,84 L191.9,102.4;M170.9,74.7 L199.8,85.8;M172,67.3 L202.5,72.5;M171.9,63.7 L202.8,66.1;M171.9,63.6 L202.8,65.7;M171.9,63.7 L202.8,66.1;M172,67.3 L202.5,72.5;M170.9,74.7 L199.8,85.8;M167,84 L191.9,102.4;M159.9,92.4 L178.4,117.4;M151.4,97.9 L162.6,126.8;M144.3,100.2 L149.5,130.8;M140.8,100.8 L143.2,131.7;M140.7,100.8 L142.8,131.7"/></path>
<path stroke-width="13" d="M103,66 L99.3,100.8"><animate attributeName="d" dur="2.6s" repeatCount="indefinite" values="M103,66 L99.3,100.8;M103,66 L99.2,100.8;M103,66 L95.7,100.2;M103,66 L88.6,97.9;M103,66 L80.1,92.4;M103,66 L73,84;M103,66 L69.1,74.7;M103,66 L68,67.3;M103,66 L68.1,63.7;M103,66 L68.1,63.6;M103,66 L68.1,63.7;M103,66 L68,67.3;M103,66 L69.1,74.7;M103,66 L73,84;M103,66 L80.1,92.4;M103,66 L88.6,97.9;M103,66 L95.7,100.2;M103,66 L99.2,100.8;M103,66 L99.3,100.8"/></path>
<path stroke-width="10" d="M99.3,100.8 L97.2,131.7"><animate attributeName="d" dur="2.6s" repeatCount="indefinite" values="M99.3,100.8 L97.2,131.7;M99.2,100.8 L96.8,131.7;M95.7,100.2 L90.5,130.8;M88.6,97.9 L77.4,126.8;M80.1,92.4 L61.6,117.4;M73,84 L48.1,102.4;M69.1,74.7 L40.2,85.8;M68,67.3 L37.5,72.5;M68.1,63.7 L37.2,66.1;M68.1,63.6 L37.2,65.7;M68.1,63.7 L37.2,66.1;M68,67.3 L37.5,72.5;M69.1,74.7 L40.2,85.8;M73,84 L48.1,102.4;M80.1,92.4 L61.6,117.4;M88.6,97.9 L77.4,126.8;M95.7,100.2 L90.5,130.8;M99.2,100.8 L96.8,131.7;M99.3,100.8 L97.2,131.7"/></path>
</g>
<g fill="currentColor">
<circle r="5" cx="142.8" cy="131.7"><animate attributeName="cx" dur="2.6s" repeatCount="indefinite" values="142.8;143.2;149.5;162.6;178.4;191.9;199.8;202.5;202.8;202.8;202.8;202.5;199.8;191.9;178.4;162.6;149.5;143.2;142.8"/><animate attributeName="cy" dur="2.6s" repeatCount="indefinite" values="131.7;131.7;130.8;126.8;117.4;102.4;85.8;72.5;66.1;65.7;66.1;72.5;85.8;102.4;117.4;126.8;130.8;131.7;131.7"/></circle>
<circle r="5" cx="97.2" cy="131.7"><animate attributeName="cx" dur="2.6s" repeatCount="indefinite" values="97.2;96.8;90.5;77.4;61.6;48.1;40.2;37.5;37.2;37.2;37.2;37.5;40.2;48.1;61.6;77.4;90.5;96.8;97.2"/><animate attributeName="cy" dur="2.6s" repeatCount="indefinite" values="131.7;131.7;130.8;126.8;117.4;102.4;85.8;72.5;66.1;65.7;66.1;72.5;85.8;102.4;117.4;126.8;130.8;131.7;131.7"/></circle>
</g>
<g fill="none" stroke-linecap="round" stroke-linejoin="round" class="muscle-stroke" stroke="#ff7a3c">
<path stroke-width="15" d="M137,66 L137.9,74.4"><animate attributeName="d" dur="2.6s" repeatCount="indefinite" values="M137,66 L137.9,74.4;M137,66 L137.9,74.3;M137,66 L138.8,74.2;M137,66 L140.5,73.7;M137,66 L142.5,72.3;M137,66 L144.2,70.3;M137,66 L145.1,68.1;M137,66 L145.4,66.3;M137,66 L145.4,65.5;M137,66 L145.4,65.4;M137,66 L145.4,65.5;M137,66 L145.4,66.3;M137,66 L145.1,68.1;M137,66 L144.2,70.3;M137,66 L142.5,72.3;M137,66 L140.5,73.7;M137,66 L138.8,74.2;M137,66 L137.9,74.3;M137,66 L137.9,74.4"/></path>
<path stroke-width="15" d="M103,66 L102.1,74.4"><animate attributeName="d" dur="2.6s" repeatCount="indefinite" values="M103,66 L102.1,74.4;M103,66 L102.1,74.3;M103,66 L101.2,74.2;M103,66 L99.5,73.7;M103,66 L97.5,72.3;M103,66 L95.8,70.3;M103,66 L94.9,68.1;M103,66 L94.6,66.3;M103,66 L94.6,65.5;M103,66 L94.6,65.4;M103,66 L94.6,65.5;M103,66 L94.6,66.3;M103,66 L94.9,68.1;M103,66 L95.8,70.3;M103,66 L97.5,72.3;M103,66 L99.5,73.7;M103,66 L101.2,74.2;M103,66 L102.1,74.3;M103,66 L102.1,74.4"/></path>
</g>
<g fill="currentColor" opacity="0.62">
<circle r="8" cx="142.8" cy="131.7"><animate attributeName="cx" dur="2.6s" repeatCount="indefinite" values="142.8;143.2;149.5;162.6;178.4;191.9;199.8;202.5;202.8;202.8;202.8;202.5;199.8;191.9;178.4;162.6;149.5;143.2;142.8"/><animate attributeName="cy" dur="2.6s" repeatCount="indefinite" values="131.7;131.7;130.8;126.8;117.4;102.4;85.8;72.5;66.1;65.7;66.1;72.5;85.8;102.4;117.4;126.8;130.8;131.7;131.7"/></circle>
<circle r="8" cx="97.2" cy="131.7"><animate attributeName="cx" dur="2.6s" repeatCount="indefinite" values="97.2;96.8;90.5;77.4;61.6;48.1;40.2;37.5;37.2;37.2;37.2;37.5;40.2;48.1;61.6;77.4;90.5;96.8;97.2"/><animate attributeName="cy" dur="2.6s" repeatCount="indefinite" values="131.7;131.7;130.8;126.8;117.4;102.4;85.8;72.5;66.1;65.7;66.1;72.5;85.8;102.4;117.4;126.8;130.8;131.7;131.7"/></circle>
</g>
<g class="ex-map" transform="translate(6,6) scale(0.2)"><g fill="currentColor" opacity="0.22"><circle cx="100" cy="42" r="20"/><rect x="92" y="60" width="16" height="12" rx="4"/><path d="M66,76 Q64,72 74,72 L126,72 Q136,72 134,76 L128,120 Q124,150 120,152 L122,172 L78,172 L80,152 Q76,150 72,120 Z"/></g><g fill="none" stroke="currentColor" opacity="0.22" stroke-linecap="round" stroke-linejoin="round"><path stroke-width="17" d="M72,80 L54,120 L48,162 M128,80 L146,120 L152,162"/><path stroke-width="21" d="M90,168 L88,228 L90,286 M110,168 L112,228 L110,286"/></g><g class="muscle-fill" fill="#ff7a3c"><ellipse cx="72" cy="80" rx="12" ry="10"/><ellipse cx="128" cy="80" rx="12" ry="10"/></g><g fill="currentColor" opacity="0.3"><path d="M86,86 Q100,82 100,86 L100,104 Q90,108 82,102 Q80,90 86,86 Z"/><path d="M114,86 Q100,82 100,86 L100,104 Q110,108 118,102 Q120,90 114,86 Z"/></g><g fill="currentColor" opacity="0.3"><ellipse cx="61" cy="99" rx="8" ry="15" transform="rotate(20 61 99)"/><ellipse cx="139" cy="99" rx="8" ry="15" transform="rotate(-20 139 99)"/></g><g fill="currentColor" opacity="0.3"><ellipse cx="51" cy="143" rx="7" ry="15" transform="rotate(12 51 143)"/><ellipse cx="149" cy="143" rx="7" ry="15" transform="rotate(-12 149 143)"/></g><g fill="currentColor" opacity="0.3"><rect x="90" y="108" width="20" height="40" rx="6"/></g><g fill="currentColor" opacity="0.3"><ellipse cx="82" cy="126" rx="6" ry="16"/><ellipse cx="118" cy="126" rx="6" ry="16"/></g><g fill="currentColor" opacity="0.3"><ellipse cx="89" cy="206" rx="11" ry="30"/><ellipse cx="111" cy="206" rx="11" ry="30"/></g><g fill="currentColor" opacity="0.3"><ellipse cx="89" cy="262" rx="8" ry="20"/><ellipse cx="111" cy="262" rx="8" ry="20"/></g></g>
</svg>
