<svg viewBox="0 0 240 240" xmlns="http://www.w3.org/2000/svg" role="img" aria-label="Calf Press on Leg Press"><title>Calf Press on Leg Press</title>
<g fill="none" stroke-linecap="round" stroke-linejoin="round" stroke="currentColor" opacity="0.28">
<path stroke-width="2.5" d="M12,225 L228,225"/>
</g>
<g fill="none" stroke-linecap="round" stroke-linejoin="round" stroke="currentColor" opacity="0.5">
<path stroke-width="8" d="M86.3,191.8 L29.8,135.2"/>
</g>
<g fill="none" stroke-linecap="round" stroke-linejoin="round" stroke="currentColor" opacity="0.28">
<path stroke-width="6" d="M58,196 L130,196"/>
<path stroke-width="4" d="M112,196 L226,82"/>
</g>
<g fill="none" stroke-linecap="round" stroke-linejoin="round" stroke="currentColor" opacity="0.38">
<path stroke-width="20" d="M92,172 L112.3,127.4"><animate attributeName="d" dur="2.2s" repeatCount="indefinite" values="M92,172 L112.3,127.4;M92,172 L112.3,127.4;M92,172 L111.7,127.1;M92,172 L110.3,126.6;M92,172 L108.6,125.9;M92,172 L106.9,125.3;M92,172 L105.3,124.9;M92,172 L104.3,124.6;M92,172 L103.8,124.4;M92,172 L103.8,124.4;M92,172 L103.8,124.4;M92,172 L104.3,124.6;M92,172 L105.3,124.9;M92,172 L106.9,125.3;M92,172 L108.6,125.9;M92,172 L110.3,126.6;M92,172 L111.7,127.1;M92,172 L112.3,127.4;M92,172 L112.3,127.4"/></path>
<path stroke-width="14" d="M112.3,127.4 L156,110"><animate attributeName="d" dur="2.2s" repeatCount="indefinite" values="M112.3,127.4 L156,110;M112.3,127.4 L156,110;M111.7,127.1 L155.6,110.4;M110.3,126.6 L154.8,111.2;M108.6,125.9 L153.6,112.4;M106.9,125.3 L152.4,113.6;M105.3,124.9 L151.2,114.8;M104.3,124.6 L150.4,115.6;M103.8,124.4 L150,116;M103.8,124.4 L150,116;M103.8,124.4 L150,116;M104.3,124.6 L150.4,115.6;M105.3,124.9 L151.2,114.8;M106.9,125.3 L152.4,113.6;M108.6,125.9 L153.6,112.4;M110.3,126.6 L154.8,111.2;M111.7,127.1 L155.6,110.4;M112.3,127.4 L156,110;M112.3,127.4 L156,110"/></path>
<path stroke-width="7.5" d="M156,110 L142.1,102"><animate attributeName="d" dur="2.2s" repeatCount="indefinite" values="M156,110 L142.1,102;M156,110 L142.1,102;M155.6,110.4 L142.3,101.6;M154.8,111.2 L142.6,100.8;M153.6,112.4 L143.5,100;M152.4,113.6 L144.7,99.6;M151.2,114.8 L146.1,99.6;M150.4,115.6 L147.2,99.9;M150,116 L147.7,100.1;M150,116 L147.8,100.2;M150,116 L147.7,100.1;M150.4,115.6 L147.2,99.9;M151.2,114.8 L146.1,99.6;M152.4,113.6 L144.7,99.6;M153.6,112.4 L143.5,100;M154.8,111.2 L142.6,100.8;M155.6,110.4 L142.3,101.6;M156,110 L142.1,102;M156,110 L142.1,102"/></path>
<path stroke-width="13" d="M49.6,129.6 L61.5,162.5"/>
<path stroke-width="10" d="M61.5,162.5 L92.1,167.8"/>
</g>
<g fill="none" stroke-linecap="round" stroke-linejoin="round" class="muscle-stroke" stroke="#ff7a3c" opacity="0.45">
<path stroke-width="8.5" d="M118.6,127.7 L135.1,121.1"><animate attributeName="d" dur="2.2s" repeatCount="indefinite" values="M118.6,127.7 L135.1,121.1;M118.5,127.7 L135.1,121.1;M117.8,127.5 L134.5,121.2;M116.5,127.2 L133.4,121.4;M114.8,126.8 L131.9,121.6;M113,126.4 L130.3,122;M111.4,126.2 L128.9,122.3;M110.3,126 L127.8,122.6;M109.8,126 L127.4,122.8;M109.8,126 L127.3,122.8;M109.8,126 L127.4,122.8;M110.3,126 L127.8,122.6;M111.4,126.2 L128.9,122.3;M113,126.4 L130.3,122;M114.8,126.8 L131.9,121.6;M116.5,127.2 L133.4,121.4;M117.8,127.5 L134.5,121.2;M118.5,127.7 L135.1,121.1;M118.6,127.7 L135.1,121.1"/></path>
</g>
<g fill="none" stroke-linecap="round" stroke-linejoin="round" stroke="currentColor">
<path stroke-width="20" d="M92,172 L112.3,127.4"><animate attributeName="d" dur="2.2s" repeatCount="indefinite" values="M92,172 L112.3,127.4;M92,172 L112.3,127.4;M92,172 L111.7,127.1;M92,172 L110.3,126.6;M92,172 L108.6,125.9;M92,172 L106.9,125.3;M92,172 L105.3,124.9;M92,172 L104.3,124.6;M92,172 L103.8,124.4;M92,172 L103.8,124.4;M92,172 L103.8,124.4;M92,172 L104.3,124.6;M92,172 L105.3,124.9;M92,172 L106.9,125.3;M92,172 L108.6,125.9;M92,172 L110.3,126.6;M92,172 L111.7,127.1;M92,172 L112.3,127.4;M92,172 L112.3,127.4"/></path>
<path stroke-width="14" d="M112.3,127.4 L156,110"><animate attributeName="d" dur="2.2s" repeatCount="indefinite" values="M112.3,127.4 L156,110;M112.3,127.4 L156,110;M111.7,127.1 L155.6,110.4;M110.3,126.6 L154.8,111.2;M108.6,125.9 L153.6,112.4;M106.9,125.3 L152.4,113.6;M105.3,124.9 L151.2,114.8;M104.3,124.6 L150.4,115.6;M103.8,124.4 L150,116;M103.8,124.4 L150,116;M103.8,124.4 L150,116;M104.3,124.6 L150.4,115.6;M105.3,124.9 L151.2,114.8;M106.9,125.3 L152.4,113.6;M108.6,125.9 L153.6,112.4;M110.3,126.6 L154.8,111.2;M111.7,127.1 L155.6,110.4;M112.3,127.4 L156,110;M112.3,127.4 L156,110"/></path>
<path stroke-width="7.5" d="M156,110 L142.1,102"><animate attributeName="d" dur="2.2s" repeatCount="indefinite" values="M156,110 L142.1,102;M156,110 L142.1,102;M155.6,110.4 L142.3,101.6;M154.8,111.2 L142.6,100.8;M153.6,112.4 L143.5,100;M152.4,113.6 L144.7,99.6;M151.2,114.8 L146.1,99.6;M150.4,115.6 L147.2,99.9;M150,116 L147.7,100.1;M150,116 L147.8,100.2;M150,116 L147.7,100.1;M150.4,115.6 L147.2,99.9;M151.2,114.8 L146.1,99.6;M152.4,113.6 L144.7,99.6;M153.6,112.4 L143.5,100;M154.8,111.2 L142.6,100.8;M155.6,110.4 L142.3,101.6;M156,110 L142.1,102;M156,110 L142.1,102"/></path>
<path stroke-width="9" d="M49.6,129.6 L44.6,124.6"/>
</g>
<g fill="currentColor">
<path d="M77.4,181.5 C71.5,180.7 70.1,168.7 65,163.4 C59.9,158 50.4,154.9 46.7,149.4 C43.1,143.8 41.2,134.6 43.1,130.1 C45,125.7 53.3,122.6 58.2,122.6 C63.2,122.6 68.4,126.3 72.8,130.1 C77.1,134 79.6,139.6 84.2,145.8 C88.8,152.1 101.6,161.8 100.5,167.8 C99.4,173.7 83.3,182.2 77.4,181.5Z"/>
<circle r="12" cx="36.8" cy="114.2"/>
</g>
<g fill="none" stroke-linecap="round" stroke-linejoin="round" class="muscle-stroke" stroke="#ff7a3c">
<path stroke-width="8.5" d="M118.6,127.7 L135.1,121.1"><animate attributeName="d" dur="2.2s" repeatCount="indefinite" values="M118.6,127.7 L135.1,121.1;M118.5,127.7 L135.1,121.1;M117.8,127.5 L134.5,121.2;M116.5,127.2 L133.4,121.4;M114.8,126.8 L131.9,121.6;M113,126.4 L130.3,122;M111.4,126.2 L128.9,122.3;M110.3,126 L127.8,122.6;M109.8,126 L127.4,122.8;M109.8,126 L127.3,122.8;M109.8,126 L127.4,122.8;M110.3,126 L127.8,122.6;M111.4,126.2 L128.9,122.3;M113,126.4 L130.3,122;M114.8,126.8 L131.9,121.6;M116.5,127.2 L133.4,121.4;M117.8,127.5 L134.5,121.2;M118.5,127.7 L135.1,121.1;M118.6,127.7 L135.1,121.1"/></path>
</g>
<g fill="none" stroke-linecap="round" stroke-linejoin="round" stroke="currentColor" opacity="0.5">
<path stroke-width="6" d="M120.1,112 L150.1,82"><animate attributeName="d" dur="2.2s" repeatCount="indefinite" values="M120.1,112 L150.1,82;M120.1,112 L150.1,82;M120.3,111.6 L150.3,81.6;M120.6,110.8 L150.6,80.8;M121.5,110 L151.5,80;M122.7,109.6 L152.7,79.6;M124.1,109.6 L154.1,79.6;M125.2,109.9 L155.2,79.9;M125.7,110.1 L155.7,80.1;M125.8,110.2 L155.8,80.2;M125.7,110.1 L155.7,80.1;M125.2,109.9 L155.2,79.9;M124.1,109.6 L154.1,79.6;M122.7,109.6 L152.7,79.6;M121.5,110 L151.5,80;M120.6,110.8 L150.6,80.8;M120.3,111.6 L150.3,81.6;M120.1,112 L150.1,82;M120.1,112 L150.1,82"/></path>
</g>
<g fill="none" stroke-linecap="round" stroke-linejoin="round" style="stroke:var(--surface-2,#eceef1)">
<path stroke-width="16.5" d="M49.6,129.6 L61.5,162.5"/>
<path stroke-width="13.5" d="M61.5,162.5 L92.1,167.8"/>
</g>
<g fill="none" stroke-linecap="round" stroke-linejoin="round" stroke="currentColor">
<path stroke-width="13" d="M49.6,129.6 L61.5,162.5"/>
<path stroke-width="10" d="M61.5,162.5 L92.1,167.8"/>
</g>
<g fill="currentColor">
<circle r="5" cx="92.1" cy="167.8"/>
</g>
<g class="ex-map" transform="translate(6,6) scale(0.2)"><g fill="currentColor" opacity="0.22"><circle cx="100" cy="42" r="20"/><rect x="92" y="60" width="16" height="12" rx="4"/><path d="M66,76 Q64,72 74,72 L126,72 Q136,72 134,76 L128,120 Q124,150 120,152 L122,172 L78,172 L80,152 Q76,150 72,120 Z"/></g><g fill="none" stroke="currentColor" opacity="0.22" stroke-linecap="round" stroke-linejoin="round"><path stroke-width="17" d="M72,80 L54,120 L48,162 M128,80 L146,120 L152,162"/><path stroke-width="21" d="M90,168 L88,228 L90,286 M110,168 L112,228 L110,286"/></g><g fill="currentColor" opacity="0.3"><ellipse cx="72" cy="80" rx="12" ry="10"/><ellipse cx="128" cy="80" rx="12" ry="10"/></g><g fill="currentColor" opacity="0.3"><path d="M86,74 L114,74 L104,100 L96,100 Z"/></g><g fill="currentColor" opacity="0.3"><path d="M82,96 L96,100 L98,142 L84,132 Z"/><path d="M118,96 L104,100 L102,142 L116,132 Z"/></g><g fill="currentColor" opacity="0.3"><ellipse cx="61" cy="99" rx="8" ry="15" transform="rotate(20 61 99)"/><ellipse cx="139" cy="99" rx="8" ry="15" transform="rotate(-20 139 99)"/></g><g fill="currentColor" opacity="0.3"><rect x="90" y="134" width="20" height="22" rx="5"/></g><g fill="currentColor" opacity="0.3"><ellipse cx="91" cy="172" rx="12" ry="12"/><ellipse cx="109" cy="172" rx="12" ry="12"/></g><g fill="currentColor" opacity="0.3"><ellipse cx="89" cy="212" rx="11" ry="26"/><ellipse cx="111" cy="212" rx="11" ry="26"/></g><g class="muscle-fill" fill="#ff7a3c"><ellipse cx="89" cy="264" rx="8" ry="20"/><ellipse cx="111" cy="264" rx="8" ry="20"/></g></g>
</svg>
