<svg viewBox="0 0 240 240" xmlns="http://www.w3.org/2000/svg" role="img" aria-label="Plank"><title>Plank</title>
<g fill="none" stroke-linecap="round" stroke-linejoin="round" stroke="currentColor" opacity="0.28">
<path stroke-width="2.5" d="M12,225 L228,225"/>
</g>
<g fill="none" stroke-linecap="round" stroke-linejoin="round" stroke="currentColor" opacity="0.38">
<path stroke-width="20" d="M119,191.2 L70.4,197.9"/>
<path stroke-width="14" d="M70.4,197.9 L23.9,204.3"/>
<path stroke-width="7.5" d="M23.9,204.3 L21.1,220"/>
<path stroke-width="13" d="M178.4,183.1 L176,218"/>
<path stroke-width="10" d="M176,218 L207,216.9"/>
</g>
<g fill="none" stroke-linecap="round" stroke-linejoin="round" stroke="currentColor">
<path stroke-width="20" d="M119,191.2 L70.4,197.9"/>
<path stroke-width="14" d="M70.4,197.9 L23.9,204.3"/>
<path stroke-width="7.5" d="M23.9,204.3 L21.1,220"/>
<path stroke-width="9" d="M178.4,183.1 L185.4,182.1"/>
</g>
<g fill="currentColor">
<path d="M120.3,173.9 C124.4,169.6 134.8,175.8 142.2,174.9 C149.6,174.1 157.8,168.4 164.4,168.9 C171,169.3 179.5,173.3 181.9,177.6 C184.3,181.8 181.7,190.2 178.7,194.1 C175.8,198.1 169.7,200.1 164,201.2 C158.3,202.3 152.3,201 144.5,200.9 C136.8,200.7 121.3,205 117.2,200.6 C113.2,196.1 116.1,178.2 120.3,173.9Z"/>
<circle r="12" cx="198.4" cy="181.7"/>
</g>
<g fill="none" stroke-linecap="round" stroke-linejoin="round" class="muscle-stroke" stroke="#ff7a3c" opacity="0.55">
<path stroke-width="9" d="M131.2,191.6 L152,188.7"/>
</g>
<g fill="none" stroke-linecap="round" stroke-linejoin="round" class="muscle-stroke" stroke="#ff7a3c">
<path stroke-width="7" d="M129.7,198.8 L152.3,195.7"/>
</g>
<g fill="none" stroke-linecap="round" stroke-linejoin="round" style="stroke:var(--surface-2,#eceef1)">
<path stroke-width="16.5" d="M178.4,183.1 L176,218"/>
<path stroke-width="13.5" d="M176,218 L207,216.9"/>
</g>
<g fill="none" stroke-linecap="round" stroke-linejoin="round" stroke="currentColor">
<path stroke-width="13" d="M178.4,183.1 L176,218"/>
<path stroke-width="10" d="M176,218 L207,216.9"/>
</g>
<g fill="currentColor">
<circle r="5" cx="207" cy="216.9"/>
</g>
<g class="ex-map" transform="translate(6,6) scale(0.2)"><g fill="currentColor" opacity="0.22"><circle cx="100" cy="42" r="20"/><rect x="92" y="60" width="16" height="12" rx="4"/><path d="M66,76 Q64,72 74,72 L126,72 Q136,72 134,76 L128,120 Q124,150 120,152 L122,172 L78,172 L80,152 Q76,150 72,120 Z"/></g><g fill="none" stroke="currentColor" opacity="0.22" stroke-linecap="round" stroke-linejoin="round"><path stroke-width="17" d="M72,80 L54,120 L48,162 M128,80 L146,120 L152,162"/><path stroke-width="21" d="M90,168 L88,228 L90,286 M110,168 L112,228 L110,286"/></g><g fill="currentColor" opacity="0.3"><ellipse cx="72" cy="80" rx="12" ry="10"/><ellipse cx="128" cy="80" rx="12" ry="10"/></g><g fill="currentColor" opacity="0.3"><path d="M86,86 Q100,82 100,86 L100,104 Q90,108 82,102 Q80,90 86,86 Z"/><path d="M114,86 Q100,82 100,86 L100,104 Q110,108 118,102 Q120,90 114,86 Z"/></g><g fill="currentColor" opacity="0.3"><ellipse cx="61" cy="99" rx="8" ry="15" transform="rotate(20 61 99)"/><ellipse cx="139" cy="99" rx="8" ry="15" transform="rotate(-20 139 99)"/></g><g fill="currentColor" opacity="0.3"><ellipse cx="51" cy="143" rx="7" ry="15" transform="rotate(12 51 143)"/><ellipse cx="149" cy="143" rx="7" ry="15" transform="rotate(-12 149 143)"/></g><g class="muscle-fill" fill="#ff7a3c"><rect x="90" y="108" width="20" height="40" rx="6"/></g><g class="muscle-fill" fill="#ff7a3c" opacity="0.5"><ellipse cx="82" cy="126" rx="6" ry="16"/><ellipse cx="118" cy="126" rx="6" ry="16"/></g><g fill="currentColor" opacity="0.3"><ellipse cx="89" cy="206" rx="11" ry="30"/><ellipse cx="111" cy="206" rx="11" ry="30"/></g><g fill="currentColor" opacity="0.3"><ellipse cx="89" cy="262" rx="8" ry="20"/><ellipse cx="111" cy="262" rx="8" ry="20"/></g></g>
</svg>
