<svg viewBox="0 0 240 240" xmlns="http://www.w3.org/2000/svg" role="img" aria-label="Seated Dumbbell Shoulder Press"><title>Seated Dumbbell Shoulder Press</title>
<g fill="none" stroke-linecap="round" stroke-linejoin="round" stroke="currentColor" opacity="0.28">
<path stroke-width="2.5" d="M12,225 L228,225"/>
</g>
<g fill="none" stroke-linecap="round" stroke-linejoin="round" stroke="currentColor" opacity="0.5">
<path stroke-width="8" d="M84,196 L146,196"/>
</g>
<g fill="none" stroke-linecap="round" stroke-linejoin="round" stroke="currentColor" opacity="0.28">
<path stroke-width="5" d="M112,200 L112,224"/>
</g>
<g fill="none" stroke-linecap="round" stroke-linejoin="round" stroke="currentColor" opacity="0.5">
<path stroke-width="8" d="M88,192 L88,100"/>
</g>
<g fill="none" stroke-linecap="round" stroke-linejoin="round" stroke="currentColor" opacity="0.38">
<path stroke-width="20" d="M110.3,173.1 L159.3,173.1"/>
<path stroke-width="14" d="M159.3,173.1 L156,220"/>
<path stroke-width="7.5" d="M156,220 L172,220"/>
<path stroke-width="13" d="M112.4,113.2 L147,117.9"><animate attributeName="d" dur="2.6s" repeatCount="indefinite" values="M112.4,113.2 L147,117.9;M112.4,113.2 L147.1,117.7;M112.4,113.2 L147.4,113.4;M112.4,113.2 L146.7,106.5;M112.4,113.2 L144.5,99.2;M112.4,113.2 L140.4,92.2;M112.4,113.2 L134.9,86.3;M112.4,113.2 L128.4,82;M112.4,113.2 L123.4,79.9;M112.4,113.2 L123,79.8;M112.4,113.2 L123.4,79.9;M112.4,113.2 L128.4,82;M112.4,113.2 L134.9,86.3;M112.4,113.2 L140.4,92.2;M112.4,113.2 L144.5,99.2;M112.4,113.2 L146.7,106.5;M112.4,113.2 L147.4,113.4;M112.4,113.2 L147.1,117.7;M112.4,113.2 L147,117.9"/></path>
<path stroke-width="10" d="M147,117.9 L120.8,101.4"><animate attributeName="d" dur="2.6s" repeatCount="indefinite" values="M147,117.9 L120.8,101.4;M147.1,117.7 L120.8,101.3;M147.4,113.4 L120.6,97.8;M146.7,106.5 L120.1,90.6;M144.5,99.2 L119.5,80.7;M140.4,92.2 L118.9,70;M134.9,86.3 L118.3,60.1;M128.4,82 L117.8,52.9;M123.4,79.9 L117.6,49.5;M123,79.8 L117.6,49.3;M123.4,79.9 L117.6,49.5;M128.4,82 L117.8,52.9;M134.9,86.3 L118.3,60.1;M140.4,92.2 L118.9,70;M144.5,99.2 L119.5,80.7;M146.7,106.5 L120.1,90.6;M147.4,113.4 L120.6,97.8;M147.1,117.7 L120.8,101.3;M147,117.9 L120.8,101.4"/></path>
</g>
<g fill="none" stroke-linecap="round" stroke-linejoin="round" class="muscle-stroke" stroke="#ff7a3c" opacity="0.45">
<path stroke-width="7" d="M119.7,116.6 L139.1,119.2"><animate attributeName="d" dur="2.6s" repeatCount="indefinite" values="M119.7,116.6 L139.1,119.2;M119.7,116.5 L139.1,119.1;M120.1,115.6 L139.7,115.8;M120.4,114 L139.6,110.3;M120.4,112.3 L138.4,104.4;M120,110.5 L135.7,98.8;M119.2,108.8 L131.8,93.8;M118,107.4 L127,90;M117.1,106.6 L123.2,88;M117,106.5 L123,87.9;M117.1,106.6 L123.2,88;M118,107.4 L127,90;M119.2,108.8 L131.8,93.8;M120,110.5 L135.7,98.8;M120.4,112.3 L138.4,104.4;M120.4,114 L139.6,110.3;M120.1,115.6 L139.7,115.8;M119.7,116.5 L139.1,119.1;M119.7,116.6 L139.1,119.2"/></path>
<path stroke-width="14" d="M113.1,113.2 L119.3,114.1"><animate attributeName="d" dur="2.6s" repeatCount="indefinite" values="M113.1,113.2 L119.3,114.1;M113.1,113.2 L119.3,114.1;M113.1,113.2 L119.4,113.2;M113.1,113 L119.2,111.8;M113,112.9 L118.8,110.4;M112.9,112.7 L118,109;M112.8,112.6 L116.9,107.8;M112.7,112.5 L115.6,106.9;M112.6,112.5 L114.6,106.5;M112.6,112.5 L114.5,106.5;M112.6,112.5 L114.6,106.5;M112.7,112.5 L115.6,106.9;M112.8,112.6 L116.9,107.8;M112.9,112.7 L118,109;M113,112.9 L118.8,110.4;M113.1,113 L119.2,111.8;M113.1,113.2 L119.4,113.2;M113.1,113.2 L119.3,114.1;M113.1,113.2 L119.3,114.1"/></path>
</g>
<g fill="none" stroke-linecap="round" stroke-linejoin="round" stroke="currentColor">
<path stroke-width="20" d="M110.3,173.1 L159.3,173.1"/>
<path stroke-width="14" d="M159.3,173.1 L156,220"/>
<path stroke-width="7.5" d="M156,220 L172,220"/>
<path stroke-width="9" d="M112.4,113.2 L112.6,106.2"/>
</g>
<g fill="currentColor">
<path d="M93.4,168.9 C89.9,164.1 97.7,154.9 98.2,147.5 C98.6,140.1 94.4,131 96,124.6 C97.5,118.1 103,110.4 107.5,108.8 C112.1,107.1 119.9,111.1 123.3,114.7 C126.7,118.4 127.6,124.7 127.8,130.5 C127.9,136.3 125.5,141.9 124.1,149.6 C122.7,157.2 124.3,173.2 119.2,176.4 C114.1,179.7 96.9,173.7 93.4,168.9Z"/>
<circle r="12" cx="113.1" cy="93.2"/>
</g>
<g fill="none" stroke-linecap="round" stroke-linejoin="round" class="muscle-stroke" stroke="#ff7a3c" opacity="0.55">
<path stroke-width="9" d="M106.1,120.1 L106.5,110.5"/>
</g>
<g fill="none" stroke-linecap="round" stroke-linejoin="round" style="stroke:var(--surface-2,#eceef1)">
<path stroke-width="16.5" d="M112.4,113.2 L147,117.9"><animate attributeName="d" dur="2.6s" repeatCount="indefinite" values="M112.4,113.2 L147,117.9;M112.4,113.2 L147.1,117.7;M112.4,113.2 L147.4,113.4;M112.4,113.2 L146.7,106.5;M112.4,113.2 L144.5,99.2;M112.4,113.2 L140.4,92.2;M112.4,113.2 L134.9,86.3;M112.4,113.2 L128.4,82;M112.4,113.2 L123.4,79.9;M112.4,113.2 L123,79.8;M112.4,113.2 L123.4,79.9;M112.4,113.2 L128.4,82;M112.4,113.2 L134.9,86.3;M112.4,113.2 L140.4,92.2;M112.4,113.2 L144.5,99.2;M112.4,113.2 L146.7,106.5;M112.4,113.2 L147.4,113.4;M112.4,113.2 L147.1,117.7;M112.4,113.2 L147,117.9"/></path>
<path stroke-width="13.5" d="M147,117.9 L120.8,101.4"><animate attributeName="d" dur="2.6s" repeatCount="indefinite" values="M147,117.9 L120.8,101.4;M147.1,117.7 L120.8,101.3;M147.4,113.4 L120.6,97.8;M146.7,106.5 L120.1,90.6;M144.5,99.2 L119.5,80.7;M140.4,92.2 L118.9,70;M134.9,86.3 L118.3,60.1;M128.4,82 L117.8,52.9;M123.4,79.9 L117.6,49.5;M123,79.8 L117.6,49.3;M123.4,79.9 L117.6,49.5;M128.4,82 L117.8,52.9;M134.9,86.3 L118.3,60.1;M140.4,92.2 L118.9,70;M144.5,99.2 L119.5,80.7;M146.7,106.5 L120.1,90.6;M147.4,113.4 L120.6,97.8;M147.1,117.7 L120.8,101.3;M147,117.9 L120.8,101.4"/></path>
</g>
<g fill="none" stroke-linecap="round" stroke-linejoin="round" stroke="currentColor">
<path stroke-width="13" d="M112.4,113.2 L147,117.9"><animate attributeName="d" dur="2.6s" repeatCount="indefinite" values="M112.4,113.2 L147,117.9;M112.4,113.2 L147.1,117.7;M112.4,113.2 L147.4,113.4;M112.4,113.2 L146.7,106.5;M112.4,113.2 L144.5,99.2;M112.4,113.2 L140.4,92.2;M112.4,113.2 L134.9,86.3;M112.4,113.2 L128.4,82;M112.4,113.2 L123.4,79.9;M112.4,113.2 L123,79.8;M112.4,113.2 L123.4,79.9;M112.4,113.2 L128.4,82;M112.4,113.2 L134.9,86.3;M112.4,113.2 L140.4,92.2;M112.4,113.2 L144.5,99.2;M112.4,113.2 L146.7,106.5;M112.4,113.2 L147.4,113.4;M112.4,113.2 L147.1,117.7;M112.4,113.2 L147,117.9"/></path>
<path stroke-width="10" d="M147,117.9 L120.8,101.4"><animate attributeName="d" dur="2.6s" repeatCount="indefinite" values="M147,117.9 L120.8,101.4;M147.1,117.7 L120.8,101.3;M147.4,113.4 L120.6,97.8;M146.7,106.5 L120.1,90.6;M144.5,99.2 L119.5,80.7;M140.4,92.2 L118.9,70;M134.9,86.3 L118.3,60.1;M128.4,82 L117.8,52.9;M123.4,79.9 L117.6,49.5;M123,79.8 L117.6,49.3;M123.4,79.9 L117.6,49.5;M128.4,82 L117.8,52.9;M134.9,86.3 L118.3,60.1;M140.4,92.2 L118.9,70;M144.5,99.2 L119.5,80.7;M146.7,106.5 L120.1,90.6;M147.4,113.4 L120.6,97.8;M147.1,117.7 L120.8,101.3;M147,117.9 L120.8,101.4"/></path>
</g>
<g fill="currentColor">
<circle r="5" cx="120.8" cy="101.4"><animate attributeName="cx" dur="2.6s" repeatCount="indefinite" values="120.8;120.8;120.6;120.1;119.5;118.9;118.3;117.8;117.6;117.6;117.6;117.8;118.3;118.9;119.5;120.1;120.6;120.8;120.8"/><animate attributeName="cy" dur="2.6s" repeatCount="indefinite" values="101.4;101.3;97.8;90.6;80.7;70;60.1;52.9;49.5;49.3;49.5;52.9;60.1;70;80.7;90.6;97.8;101.3;101.4"/></circle>
</g>
<g fill="none" stroke-linecap="round" stroke-linejoin="round" class="muscle-stroke" stroke="#ff7a3c" opacity="0.55">
<path stroke-width="7" d="M119.7,116.6 L139.1,119.2"><animate attributeName="d" dur="2.6s" repeatCount="indefinite" values="M119.7,116.6 L139.1,119.2;M119.7,116.5 L139.1,119.1;M120.1,115.6 L139.7,115.8;M120.4,114 L139.6,110.3;M120.4,112.3 L138.4,104.4;M120,110.5 L135.7,98.8;M119.2,108.8 L131.8,93.8;M118,107.4 L127,90;M117.1,106.6 L123.2,88;M117,106.5 L123,87.9;M117.1,106.6 L123.2,88;M118,107.4 L127,90;M119.2,108.8 L131.8,93.8;M120,110.5 L135.7,98.8;M120.4,112.3 L138.4,104.4;M120.4,114 L139.6,110.3;M120.1,115.6 L139.7,115.8;M119.7,116.5 L139.1,119.1;M119.7,116.6 L139.1,119.2"/></path>
</g>
<g fill="none" stroke-linecap="round" stroke-linejoin="round" class="muscle-stroke" stroke="#ff7a3c">
<path stroke-width="14" d="M113.1,113.2 L119.3,114.1"><animate attributeName="d" dur="2.6s" repeatCount="indefinite" values="M113.1,113.2 L119.3,114.1;M113.1,113.2 L119.3,114.1;M113.1,113.2 L119.4,113.2;M113.1,113 L119.2,111.8;M113,112.9 L118.8,110.4;M112.9,112.7 L118,109;M112.8,112.6 L116.9,107.8;M112.7,112.5 L115.6,106.9;M112.6,112.5 L114.6,106.5;M112.6,112.5 L114.5,106.5;M112.6,112.5 L114.6,106.5;M112.7,112.5 L115.6,106.9;M112.8,112.6 L116.9,107.8;M112.9,112.7 L118,109;M113,112.9 L118.8,110.4;M113.1,113 L119.2,111.8;M113.1,113.2 L119.4,113.2;M113.1,113.2 L119.3,114.1;M113.1,113.2 L119.3,114.1"/></path>
</g>
<g fill="currentColor" opacity="0.62">
<circle r="8" cx="120.8" cy="101.4"><animate attributeName="cx" dur="2.6s" repeatCount="indefinite" values="120.8;120.8;120.6;120.1;119.5;118.9;118.3;117.8;117.6;117.6;117.6;117.8;118.3;118.9;119.5;120.1;120.6;120.8;120.8"/><animate attributeName="cy" dur="2.6s" repeatCount="indefinite" values="101.4;101.3;97.8;90.6;80.7;70;60.1;52.9;49.5;49.3;49.5;52.9;60.1;70;80.7;90.6;97.8;101.3;101.4"/></circle>
</g>
<g class="ex-map" transform="translate(6,6) scale(0.2)"><g fill="currentColor" opacity="0.22"><circle cx="100" cy="42" r="20"/><rect x="92" y="60" width="16" height="12" rx="4"/><path d="M66,76 Q64,72 74,72 L126,72 Q136,72 134,76 L128,120 Q124,150 120,152 L122,172 L78,172 L80,152 Q76,150 72,120 Z"/></g><g fill="none" stroke="currentColor" opacity="0.22" stroke-linecap="round" stroke-linejoin="round"><path stroke-width="17" d="M72,80 L54,120 L48,162 M128,80 L146,120 L152,162"/><path stroke-width="21" d="M90,168 L88,228 L90,286 M110,168 L112,228 L110,286"/></g><g class="muscle-fill" fill="#ff7a3c"><ellipse cx="72" cy="80" rx="12" ry="10"/><ellipse cx="128" cy="80" rx="12" ry="10"/></g><g fill="currentColor" opacity="0.3"><path d="M86,86 Q100,82 100,86 L100,104 Q90,108 82,102 Q80,90 86,86 Z"/><path d="M114,86 Q100,82 100,86 L100,104 Q110,108 118,102 Q120,90 114,86 Z"/></g><g fill="currentColor" opacity="0.3"><ellipse cx="61" cy="99" rx="8" ry="15" transform="rotate(20 61 99)"/><ellipse cx="139" cy="99" rx="8" ry="15" transform="rotate(-20 139 99)"/></g><g fill="currentColor" opacity="0.3"><ellipse cx="51" cy="143" rx="7" ry="15" transform="rotate(12 51 143)"/><ellipse cx="149" cy="143" rx="7" ry="15" transform="rotate(-12 149 143)"/></g><g fill="currentColor" opacity="0.3"><rect x="90" y="108" width="20" height="40" rx="6"/></g><g fill="currentColor" opacity="0.3"><ellipse cx="82" cy="126" rx="6" ry="16"/><ellipse cx="118" cy="126" rx="6" ry="16"/></g><g fill="currentColor" opacity="0.3"><ellipse cx="89" cy="206" rx="11" ry="30"/><ellipse cx="111" cy="206" rx="11" ry="30"/></g><g fill="currentColor" opacity="0.3"><ellipse cx="89" cy="262" rx="8" ry="20"/><ellipse cx="111" cy="262" rx="8" ry="20"/></g></g>
</svg>
